# xmcd
#
# Track frame offsets:
#	182
#	15057
#	35470
#	55655
#	69185
#	85217
#	105125
#	126317
#	146447
#	165432
#
# Disc length: 2445 seconds
#
# Revision: 4
# Processed by: cddbd v1.5.1PL0 Copyright (c) Steve Scherf et al.
# Submitted via: audiograbber 1.83.01
#
DISCID=69098b0a
DTITLE=Billy Burnette - Coming Home
DYEAR=1993
DGENRE=Country
TTITLE0=Tangled Up In Texas
TTITLE1=Into The Storm
TTITLE2=This Love (Ain't Long For This World)
TTITLE3=Sugar Babe
TTITLE4=The Bigger The Love (Coming Home)
TTITLE5=I Recovered, I Survived
TTITLE6=Walk With Me
TTITLE7=Let Your Heart Make Up Your Mind
TTITLE8=I Still Remember (How To Miss You)
TTITLE9=The Light Of Love
EXTD=
EXTT0=
EXTT1=
EXTT2=
EXTT3=
EXTT4=
EXTT5=
EXTT6=
EXTT7=
EXTT8=
EXTT9=
PLAYORDER=
